<svg xmlns="http://www.w3.org/2000/svg" viewBox="0 0 64 64" width="64" height="64">
  <!-- Background circle -->
  <circle cx="32" cy="32" r="30" fill="url(#orangeGradient)" stroke="#ea580c" stroke-width="4"/>
  
  <!-- Inner circle with subtle shadow -->
  <circle cx="32" cy="32" r="26" fill="#fff" opacity="0.9"/>
  
  <!-- Apple icon (food) -->
  <g transform="translate(18, 20)">
    <!-- Apple body -->
    <path d="M8 6C8 3 10 1 13 1C16 1 18 3 18 6C18 6 18 12 18 16C18 20 15 22 13 22C11 22 8 20 8 16C8 12 8 6 8 6Z" 
          fill="#22c55e" opacity="0.8"/>
    <!-- Apple stem -->
    <rect x="12.5" y="0" width="1" height="3" fill="#8b5cf6" rx="0.5"/>
    <!-- Apple leaf -->
    <ellipse cx="14" cy="1.5" rx="1.5" ry="0.8" fill="#16a34a" opacity="0.7"/>
  </g>
  
  <!-- Dumbbell icon (exercise) -->
  <g transform="translate(32, 20)">
    <!-- Dumbbell bar -->
    <rect x="7" y="10" width="12" height="2" fill="#3b82f6" rx="1"/>
    <!-- Left weight -->
    <rect x="5" y="8" width="4" height="6" fill="#1d4ed8" rx="1"/>
    <!-- Right weight -->
    <rect x="17" y="8" width="4" height="6" fill="#1d4ed8" rx="1"/>
  </g>
  
  <!-- Flame/energy icon in center bottom -->
  <g transform="translate(28, 38)">
    <path d="M4 8C4 8 2 6 2 4C2 2 3 0 5 0C7 0 8 2 8 4C8 6 6 8 6 8C6 8 7 9 6 10C5 11 3 11 2 10C1 9 2 8 4 8Z" 
          fill="url(#flameGradient)"/>
  </g>
  
  <!-- Plus symbol (calculation) -->
  <g transform="translate(40, 38)">
    <rect x="3" y="1" width="2" height="6" fill="#f97316" rx="1"/>
    <rect x="1" y="3" width="6" height="2" fill="#f97316" rx="1"/>
  </g>
  
  <!-- Minus symbol (calculation) -->
  <g transform="translate(16, 38)">
    <rect x="1" y="3" width="6" height="2" fill="#ef4444" rx="1"/>
  </g>
  
  <!-- Gradients -->
  <defs>
    <linearGradient id="orangeGradient" x1="0%" y1="0%" x2="100%" y2="100%">
      <stop offset="0%" style="stop-color:#f97316;stop-opacity:1" />
      <stop offset="100%" style="stop-color:#eab308;stop-opacity:1" />
    </linearGradient>
    
    <linearGradient id="flameGradient" x1="0%" y1="0%" x2="0%" y2="100%">
      <stop offset="0%" style="stop-color:#fbbf24;stop-opacity:1" />
      <stop offset="100%" style="stop-color:#f59e0b;stop-opacity:1" />
    </linearGradient>
  </defs>
  
  <!-- Subtle highlight for depth -->
  <circle cx="32" cy="32" r="30" fill="none" stroke="url(#highlightGradient)" stroke-width="1" opacity="0.3"/>
  
  <defs>
    <linearGradient id="highlightGradient" x1="0%" y1="0%" x2="0%" y2="100%">
      <stop offset="0%" style="stop-color:#ffffff;stop-opacity:0.8" />
      <stop offset="100%" style="stop-color:#ffffff;stop-opacity:0" />
    </linearGradient>
  </defs>
</svg>